# xmcd CD database file
#
# Track frame offsets:
#	150
#	14017
#	29793
#	44829
#	56871
#	76679
#	93243
#	108129
#	125538
#	143312
#	162331
#	181324
#	198225
#	217089
#	235093
#	252182
#	268206
#	282762
#	300060
#	314724
#	331760
#
# Disc length: 4694 seconds
#
# Revision: 13
# Processed by: cddbd v1.5.2PL0 Copyright (c) Steve Scherf et al.
# Submitted via: CDex 1.74
#
DISCID=28125415
DTITLE=Rogers, Kenny - 42 Ultimate Hits - Disc 2
DYEAR=2004
DGENRE=Country
TTITLE0=What Are We Doin' in Love (feat. Dottie West)
TTITLE1=I Don't Need You
TTITLE2=Share Your Love with Me
TTITLE3=Blaze of Glory
TTITLE4=Through the Years
TTITLE5=Love Will Turn You Around
TTITLE6=A Love Song
TTITLE7=We've got Tonight (feat. Sheena Easton)
TTITLE8=Scarlet Fever
TTITLE9=Islands in the Stream (feat. Dolly Parton)
TTITLE10=Buried Treasure
TTITLE11=Crazy
TTITLE12=Morning Desire
TTITLE13=Make No Mistake, She's Mine (feat. Ronnie Milsap)
TTITLE14=Twenty Years Ago
TTITLE15=The Vows Go Unbroken (Always True to You)
TTITLE16=The Greatest
TTITLE17=Buy Me a Rose (feat. Alison Krauss and Billy Dean)
TTITLE18=It's a Beautiful Life
TTITLE19=My World is Over (feat. Whitney Duncan)
TTITLE20=We Are the Same
EXTD=YEAR: 2004
EXTT0=
EXTT1=
EXTT2=
EXTT3=
EXTT4=
EXTT5=
EXTT6=
EXTT7=
EXTT8=
EXTT9=
EXTT10=
EXTT11=
EXTT12=
EXTT13=
EXTT14=
EXTT15=
EXTT16=
EXTT17=
EXTT18=
EXTT19=
EXTT20=
PLAYORDER=
